<mxfile host="65bd71144e">
    <diagram id="cdss-module" name="HIS系统功能模块类图">
        <mxGraphModel dx="287" dy="468" grid="1" gridSize="10" guides="1" tooltips="1" connect="1" arrows="1" fold="1" page="1" pageScale="1" pageWidth="827" pageHeight="1169" math="0" shadow="0">
            <root>
                <mxCell id="0"/>
                <mxCell id="1" parent="0"/>
                <mxCell id="MedicalOrderControl" value="医嘱质控&#10;--&#10;- orderType: String&#10;- controlLevel: String&#10;- orderContent: String&#10;- controlStatus: String&#10;- forcePassReason: String&#10;--&#10;+ checkOrder(): ControlResult&#10;+ forcePass(reason: String)&#10;+ getControlHistory()&#10;+ getOrderTypes()&#10;+ getControlLevels()&#10;+ analyzeControlLevel()&#10;+ generateControlReport()&#10;+ saveOrderInfo()" style="swimlane;fontStyle=1;align=center;verticalAlign=top;childLayout=stackLayout;horizontal=1;startSize=140;horizontalStack=0;resizeParent=1;resizeParentMax=0;resizeLast=0;collapsible=1;marginBottom=0;" parent="1" vertex="1">
                    <mxGeometry x="40" y="40" width="200" height="280" as="geometry"/>
                </mxCell>
                <mxCell id="ControlResult" value="ControlResult&#10;--&#10;- orderId: String&#10;- controlLevel: String&#10;- controlItems: List&lt;ControlItem&gt;&#10;- controlStatus: String&#10;- createTime: Date&#10;--&#10;+ getControlLevel()&#10;+ getControlItems()&#10;+ getControlStatus()&#10;+ getCreateTime()" style="swimlane;fontStyle=1;align=center;verticalAlign=top;childLayout=stackLayout;horizontal=1;startSize=120;horizontalStack=0;resizeParent=1;resizeParentMax=0;resizeLast=0;collapsible=1;marginBottom=0;" parent="1" vertex="1">
                    <mxGeometry x="280" y="520" width="200" height="200" as="geometry"/>
                </mxCell>
                <mxCell id="ControlItem" value="ControlItem&#10;--&#10;- itemType: String&#10;- itemContent: String&#10;- itemLevel: String&#10;- suggestion: String&#10;--&#10;+ getItemType()&#10;+ getItemContent()&#10;+ getItemLevel()&#10;+ getSuggestion()" style="swimlane;fontStyle=1;align=center;verticalAlign=top;childLayout=stackLayout;horizontal=1;startSize=120;horizontalStack=0;resizeParent=1;resizeParentMax=0;resizeLast=0;collapsible=1;marginBottom=0;" parent="1" vertex="1">
                    <mxGeometry x="520" y="520" width="200" height="200" as="geometry"/>
                </mxCell>
                <mxCell id="relation5" value="creates" style="endArrow=open;endSize=12;dashed=1;html=1;exitX=0.5;exitY=1;exitDx=0;exitDy=0;entryX=0.5;entryY=0;entryDx=0;entryDy=0;" parent="1" source="MedicalOrderControl" target="ControlResult" edge="1">
                    <mxGeometry relative="1" as="geometry"/>
                </mxCell>
                <mxCell id="relation6" value="contains" style="endArrow=diamond;endFill=1;html=1;exitX=0;exitY=0.5;exitDx=0;exitDy=0;entryX=1;entryY=0.5;entryDx=0;entryDy=0;" parent="1" source="ControlItem" target="ControlResult" edge="1">
                    <mxGeometry relative="1" as="geometry"/>
                </mxCell>
                <mxCell id="DiagnosisRecommendation" value="疑似诊断推荐&#10;--&#10;- symptoms: List&lt;String&gt;&#10;- examResults: List&lt;String&gt;&#10;- diagnosisStatus: String&#10;- finalDiagnosis: String&#10;--&#10;+ analyzeSymptoms()&#10;+ analyzeExamResults()&#10;+ recommendDiagnosis()&#10;+ getDiagnosisDetail()&#10;+ getDifferentialDiagnosis()&#10;+ getRecommendReason()&#10;+ confirmDiagnosis()&#10;+ saveDiagnosisResult()" style="swimlane;fontStyle=1;align=center;verticalAlign=top;childLayout=stackLayout;horizontal=1;startSize=140;horizontalStack=0;resizeParent=1;resizeParentMax=0;resizeLast=0;collapsible=1;marginBottom=0;" parent="1" vertex="1">
                    <mxGeometry x="280" y="40" width="200" height="280" as="geometry"/>
                </mxCell>
                <mxCell id="DiagnosisAdvice" value="DiagnosisAdvice&#10;--&#10;- diagnosisId: String&#10;- possibleDiagnoses: List&lt;String&gt;&#10;- confidence: float&#10;- reasonAnalysis: String&#10;- createTime: Date&#10;--&#10;+ getPossibleDiagnoses()&#10;+ getConfidence()&#10;+ getReasonAnalysis()&#10;+ getDifferentialInfo()" style="swimlane;fontStyle=1;align=center;verticalAlign=top;childLayout=stackLayout;horizontal=1;startSize=120;horizontalStack=0;resizeParent=1;resizeParentMax=0;resizeLast=0;collapsible=1;marginBottom=0;" parent="1" vertex="1">
                    <mxGeometry x="280" y="760" width="200" height="200" as="geometry"/>
                </mxCell>
                <mxCell id="SymptomAnalysis" value="SymptomAnalysis&#10;--&#10;- symptomId: String&#10;- symptomName: String&#10;- severity: String&#10;- duration: String&#10;- relatedDiagnoses: List&lt;String&gt;&#10;--&#10;+ getSymptomInfo()&#10;+ getSeverity()&#10;+ getDuration()&#10;+ getRelatedDiagnoses()" style="swimlane;fontStyle=1;align=center;verticalAlign=top;childLayout=stackLayout;horizontal=1;startSize=120;horizontalStack=0;resizeParent=1;resizeParentMax=0;resizeLast=0;collapsible=1;marginBottom=0;" parent="1" vertex="1">
                    <mxGeometry x="520" y="760" width="200" height="200" as="geometry"/>
                </mxCell>
                <mxCell id="relation7" value="creates" style="endArrow=open;endSize=12;dashed=1;html=1;exitX=0.5;exitY=1;exitDx=0;exitDy=0;entryX=0.5;entryY=0;entryDx=0;entryDy=0;" parent="1" source="DiagnosisRecommendation" target="DiagnosisAdvice" edge="1">
                    <mxGeometry relative="1" as="geometry"/>
                </mxCell>
                <mxCell id="relation8" value="analyzes" style="endArrow=open;endSize=12;dashed=1;html=1;exitX=1;exitY=0.75;exitDx=0;exitDy=0;entryX=0;entryY=0.5;entryDx=0;entryDy=0;" parent="1" source="DiagnosisAdvice" target="SymptomAnalysis" edge="1">
                    <mxGeometry relative="1" as="geometry"/>
                </mxCell>
                <mxCell id="TreatmentRecommendation" value="治疗方案推荐&#10;--&#10;- treatmentType: String&#10;- examResults: List&lt;String&gt;&#10;- diagnosis: String&#10;- treatmentStatus: String&#10;--&#10;+ setTreatmentType()&#10;+ analyzeExamResults()&#10;+ recommendTreatment()&#10;+ getExamResultPlan()&#10;+ getWesternMedicinePlan()&#10;+ getTraditionalMedicinePlan()&#10;+ confirmTreatment()&#10;+ saveTreatmentPlan()" style="swimlane;fontStyle=1;align=center;verticalAlign=top;childLayout=stackLayout;horizontal=1;startSize=120;horizontalStack=0;resizeParent=1;resizeParentMax=0;resizeLast=0;collapsible=1;marginBottom=0;" parent="1" vertex="1">
                    <mxGeometry x="520" y="40" width="200" height="280" as="geometry"/>
                </mxCell>
                <mxCell id="TreatmentAdvice" value="TreatmentAdvice&#10;--&#10;- treatmentId: String&#10;- treatmentType: String&#10;- suggestions: List&lt;String&gt;&#10;- confidence: float&#10;- createTime: Date&#10;--&#10;+ getTreatmentType()&#10;+ getSuggestions()&#10;+ getConfidence()&#10;+ getCreateTime()&#10;+ getReasonAnalysis()" style="swimlane;fontStyle=1;align=center;verticalAlign=top;childLayout=stackLayout;horizontal=1;startSize=120;horizontalStack=0;resizeParent=1;resizeParentMax=0;resizeLast=0;collapsible=1;marginBottom=0;" parent="1" vertex="1">
                    <mxGeometry x="760" y="40" width="200" height="200" as="geometry"/>
                </mxCell>
                <mxCell id="ExamResultPlan" value="ExamResultPlan&#10;--&#10;- planId: String&#10;- examType: String&#10;- examItems: List&lt;String&gt;&#10;- expectedResults: String&#10;- precautions: String&#10;--&#10;+ getExamType()&#10;+ getExamItems()&#10;+ getExpectedResults()&#10;+ getPrecautions()&#10;+ generateReport()" style="swimlane;fontStyle=1;align=center;verticalAlign=top;childLayout=stackLayout;horizontal=1;startSize=120;horizontalStack=0;resizeParent=1;resizeParentMax=0;resizeLast=0;collapsible=1;marginBottom=0;" parent="1" vertex="1">
                    <mxGeometry x="760" y="280" width="200" height="200" as="geometry"/>
                </mxCell>
                <mxCell id="relation12" value="creates" style="endArrow=open;endSize=12;dashed=1;html=1;exitX=1;exitY=0.25;exitDx=0;exitDy=0;entryX=0;entryY=0.5;entryDx=0;entryDy=0;" parent="1" source="TreatmentRecommendation" target="TreatmentAdvice" edge="1">
                    <mxGeometry relative="1" as="geometry"/>
                </mxCell>
                <mxCell id="relation13" value="generates" style="endArrow=open;endSize=12;dashed=1;html=1;exitX=1;exitY=0.75;exitDx=0;exitDy=0;entryX=0;entryY=0.5;entryDx=0;entryDy=0;" parent="1" source="TreatmentRecommendation" target="ExamResultPlan" edge="1">
                    <mxGeometry relative="1" as="geometry"/>
                </mxCell>
                <mxCell id="KnowledgeBase" value="知识库管理&#10;--&#10;- knowledgeType: String&#10;- searchKeyword: String&#10;- searchConditions: Map&lt;String, String&gt;&#10;--&#10;+ loadKnowledgeTypes()&#10;+ searchKnowledge()&#10;+ getKnowledgeDetail()&#10;+ getDrugInstructions()&#10;+ getKnowledgeTypes()&#10;+ getRelatedKnowledge()&#10;+ setSearchConditions()&#10;+ getSearchHistory()" style="swimlane;fontStyle=1;align=center;verticalAlign=top;childLayout=stackLayout;horizontal=1;startSize=140;horizontalStack=0;resizeParent=1;resizeParentMax=0;resizeLast=0;collapsible=1;marginBottom=0;" parent="1" vertex="1">
                    <mxGeometry x="40" y="280" width="200" height="260" as="geometry"/>
                </mxCell>
                <mxCell id="KnowledgeType" value="KnowledgeType&#10;--&#10;- typeId: String&#10;- typeName: String&#10;- description: String&#10;- parentType: String&#10;--&#10;+ getTypeInfo()&#10;+ getSubTypes()&#10;+ getTypeDescription()&#10;+ isLeafType()" style="swimlane;fontStyle=1;align=center;verticalAlign=top;childLayout=stackLayout;horizontal=1;startSize=120;horizontalStack=0;resizeParent=1;resizeParentMax=0;resizeLast=0;collapsible=1;marginBottom=0;" parent="1" vertex="1">
                    <mxGeometry x="40" y="580" width="200" height="200" as="geometry"/>
                </mxCell>
                <mxCell id="KnowledgeDetail" value="KnowledgeDetail&#10;--&#10;- knowledgeId: String&#10;- title: String&#10;- content: String&#10;- type: KnowledgeType&#10;- createTime: Date&#10;- updateTime: Date&#10;--&#10;+ getBasicInfo()&#10;+ getContent()&#10;+ getRelatedDrugs()&#10;+ getUpdateHistory()" style="swimlane;fontStyle=1;align=center;verticalAlign=top;childLayout=stackLayout;horizontal=1;startSize=140;horizontalStack=0;resizeParent=1;resizeParentMax=0;resizeLast=0;collapsible=1;marginBottom=0;" parent="1" vertex="1">
                    <mxGeometry x="40" y="820" width="200" height="240" as="geometry"/>
                </mxCell>
                <mxCell id="DrugInstructions" value="DrugInstructions&#10;--&#10;- drugId: String&#10;- drugName: String&#10;- manufacturer: String&#10;- usage: String&#10;- dosage: String&#10;- contraindications: List&lt;String&gt;&#10;--&#10;+ getDrugBasicInfo()&#10;+ getUsageInfo()&#10;+ getSafetyInfo()&#10;+ getWarnings()" style="swimlane;fontStyle=1;align=center;verticalAlign=top;childLayout=stackLayout;horizontal=1;startSize=140;horizontalStack=0;resizeParent=1;resizeParentMax=0;resizeLast=0;collapsible=1;marginBottom=0;" parent="1" vertex="1">
                    <mxGeometry x="280" y="820" width="200" height="240" as="geometry"/>
                </mxCell>
                <mxCell id="relation9" value="categorizes" style="endArrow=open;endSize=12;dashed=1;html=1;exitX=0.5;exitY=1;exitDx=0;exitDy=0;entryX=0.5;entryY=0;entryDx=0;entryDy=0;" parent="1" source="KnowledgeBase" target="KnowledgeType" edge="1">
                    <mxGeometry relative="1" as="geometry"/>
                </mxCell>
                <mxCell id="relation10" value="contains" style="endArrow=diamond;endFill=1;html=1;exitX=0.5;exitY=1;exitDx=0;exitDy=0;entryX=0.5;entryY=0;entryDx=0;entryDy=0;" parent="1" source="KnowledgeType" target="KnowledgeDetail" edge="1">
                    <mxGeometry relative="1" as="geometry"/>
                </mxCell>
                <mxCell id="relation11" value="includes" style="endArrow=open;endSize=12;dashed=1;html=1;exitX=1;exitY=0.5;exitDx=0;exitDy=0;entryX=0;entryY=0.5;entryDx=0;entryDy=0;" parent="1" source="KnowledgeDetail" target="DrugInstructions" edge="1">
                    <mxGeometry relative="1" as="geometry"/>
                </mxCell>
                <mxCell id="CaseQuery" value="相似病历查询&#10;--&#10;- matchConditions: List&lt;String&gt;&#10;- patientInfo: PatientInfo&#10;- caseFeatures: List&lt;String&gt;&#10;- similarityThreshold: float&#10;--&#10;+ searchSimilarCases()&#10;+ getCaseDetail()&#10;+ getSearchHistory()&#10;+ setMatchConditions()&#10;+ getMatchingDegree()&#10;+ setCaseFeatures()&#10;+ setSimilarityThreshold()&#10;+ getSimilarityScore()" style="swimlane;fontStyle=1;align=center;verticalAlign=top;childLayout=stackLayout;horizontal=1;startSize=120;horizontalStack=0;resizeParent=1;resizeParentMax=0;resizeLast=0;collapsible=1;marginBottom=0;" parent="1" vertex="1">
                    <mxGeometry x="280" y="280" width="200" height="260" as="geometry"/>
                </mxCell>
                <mxCell id="CaseDetail" value="CaseDetail&#10;--&#10;- caseId: String&#10;- patientInfo: PatientInfo&#10;- diagnosis: String&#10;- treatment: String&#10;- similarity: float&#10;--&#10;+ getCaseBasicInfo()&#10;+ getDiagnosisInfo()&#10;+ getTreatmentInfo()&#10;+ getSimilarityInfo()" style="swimlane;fontStyle=1;align=center;verticalAlign=top;childLayout=stackLayout;horizontal=1;startSize=120;horizontalStack=0;resizeParent=1;resizeParentMax=0;resizeLast=0;collapsible=1;marginBottom=0;" parent="1" vertex="1">
                    <mxGeometry x="520" y="520" width="200" height="200" as="geometry"/>
                </mxCell>
                <mxCell id="relation4" value="uses" style="endArrow=open;endSize=12;dashed=1;html=1;exitX=1;exitY=0.75;exitDx=0;exitDy=0;entryX=0;entryY=0.5;entryDx=0;entryDy=0;" parent="1" source="CaseQuery" target="CaseDetail" edge="1">
                    <mxGeometry relative="1" as="geometry"/>
                </mxCell>
                <mxCell id="PatientInfo" value="PatientInfo&#10;--&#10;- visitType: String&#10;- visitId: String&#10;- patientId: String&#10;- age: int&#10;- gender: String&#10;- birthDate: Date&#10;--&#10;+ getBasicInfo()&#10;+ getMedicalHistory()" style="swimlane;fontStyle=1;align=center;verticalAlign=top;childLayout=stackLayout;horizontal=1;startSize=140;horizontalStack=0;resizeParent=1;resizeParentMax=0;resizeLast=0;collapsible=1;marginBottom=0;" parent="1" vertex="1">
                    <mxGeometry x="520" y="280" width="200" height="200" as="geometry"/>
                </mxCell>
                <mxCell id="relation1" value="uses" style="endArrow=open;endSize=12;dashed=1;html=1;exitX=1;exitY=0.5;exitDx=0;exitDy=0;entryX=0;entryY=0.5;entryDx=0;entryDy=0;" parent="1" source="DiagnosisRecommendation" target="TreatmentRecommendation" edge="1">
                    <mxGeometry relative="1" as="geometry"/>
                </mxCell>
                <mxCell id="relation2" value="uses" style="endArrow=open;endSize=12;dashed=1;html=1;exitX=1;exitY=0.5;exitDx=0;exitDy=0;entryX=0;entryY=0.5;entryDx=0;entryDy=0;" parent="1" source="KnowledgeBase" target="CaseQuery" edge="1">
                    <mxGeometry relative="1" as="geometry"/>
                </mxCell>
                <mxCell id="relation3" value="uses" style="endArrow=open;endSize=12;dashed=1;html=1;exitX=1;exitY=0.5;exitDx=0;exitDy=0;entryX=0;entryY=0.5;entryDx=0;entryDy=0;" parent="1" source="CaseQuery" target="PatientInfo" edge="1">
                    <mxGeometry relative="1" as="geometry"/>
                </mxCell>
            </root>
        </mxGraphModel>
    </diagram>
</mxfile>